<svg width="44" height="45" viewBox="0 0 44 45" fill="none" xmlns="http://www.w3.org/2000/svg">
<path d="M13.4729 11.5411H9.8921C8.90328 11.5411 8.10168 12.3721 8.10168 13.3972V18.9658C8.10168 19.9909 8.90328 20.8219 9.8921 20.8219H13.4729C14.4618 20.8219 15.2634 19.9909 15.2634 18.9658V13.3972C15.2634 12.3721 14.4618 11.5411 13.4729 11.5411Z" stroke="black" stroke-width="2" stroke-linecap="round" stroke-linejoin="round"/>
<path d="M11.6825 7.8287V11.5411" stroke="black" stroke-width="2" stroke-linecap="round" stroke-linejoin="round"/>
<path d="M11.6825 20.8219V37.5275" stroke="black" stroke-width="2" stroke-linecap="round" stroke-linejoin="round"/>
<path d="M24.2154 26.3905H20.6346C19.6458 26.3905 18.8442 27.2215 18.8442 28.2466V33.8152C18.8442 34.8403 19.6458 35.6713 20.6346 35.6713H24.2154C25.2042 35.6713 26.0058 34.8403 26.0058 33.8152V28.2466C26.0058 27.2215 25.2042 26.3905 24.2154 26.3905Z" stroke="black" stroke-width="2" stroke-linecap="round" stroke-linejoin="round"/>
<path d="M22.425 7.8287V26.3905" stroke="black" stroke-width="2" stroke-linecap="round" stroke-linejoin="round"/>
<path d="M22.425 35.6713V37.5275" stroke="black" stroke-width="2" stroke-linecap="round" stroke-linejoin="round"/>
<path d="M34.9579 9.68488H31.3771C30.3883 9.68488 29.5867 10.5159 29.5867 11.5411V18.9658C29.5867 19.9909 30.3883 20.8219 31.3771 20.8219H34.9579C35.9467 20.8219 36.7483 19.9909 36.7483 18.9658V11.5411C36.7483 10.5159 35.9467 9.68488 34.9579 9.68488Z" stroke="black" stroke-width="2" stroke-linecap="round" stroke-linejoin="round"/>
<path d="M33.1675 7.8287V9.68488" stroke="black" stroke-width="2" stroke-linecap="round" stroke-linejoin="round"/>
<path d="M33.1675 20.8219V37.5275" stroke="black" stroke-width="2" stroke-linecap="round" stroke-linejoin="round"/>
</svg>
