<svg width="44" height="46" viewBox="0 0 44 46" fill="none" xmlns="http://www.w3.org/2000/svg">
<path d="M43.1877 28.343C40.3239 40.2672 28.6827 47.5059 17.1984 44.5384C5.71133 41.5918 -1.28573 29.4938 1.58334 17.6002C4.44035 5.67874 16.0883 -1.57532 27.5659 1.39219C39.0597 4.36803 46.0567 16.4299 43.1877 28.3513V28.343ZM31.84 19.7949C32.265 16.8482 30.0931 15.2568 27.1195 14.1851L28.0848 10.1946L25.7305 9.57888L24.7961 13.4888C24.1807 13.322 23.5398 13.1774 22.8963 13.0259L23.8334 9.0799L21.4725 8.4725L20.5085 12.4825C19.9991 12.3587 19.5044 12.2364 19.007 12.1141L15.7678 11.2732L15.1391 13.8877C15.1391 13.8877 16.886 14.2991 16.8431 14.3213C17.8017 14.5757 17.9746 15.2178 17.9478 15.7404L15.308 26.714C15.1753 27.0197 14.8749 27.4687 14.2126 27.2936C14.2341 27.3283 12.4952 26.853 12.4952 26.853L11.3154 29.6453L14.3735 30.4348L16.0346 30.8838L15.064 34.9465L17.4249 35.547L18.3956 31.5287C19.0378 31.7177 19.6518 31.8831 20.2659 32.036L19.3596 36.0237L21.7192 36.6395L22.6898 32.5795C26.6972 33.3676 29.7151 33.0562 30.986 29.2923C32.005 26.2581 30.9284 24.5151 28.8141 23.3712C30.3358 23.0084 31.4955 21.959 31.8159 19.7949H31.84ZM26.4558 27.6202C25.7372 30.66 20.8142 29.0101 19.2161 28.5973L20.5072 23.2266C22.1066 23.6533 27.2173 24.4706 26.4558 27.6202ZM27.1905 19.7587C26.5256 22.5233 22.4338 21.1264 21.0998 20.7776L22.2742 15.885C23.6002 16.2172 27.8796 16.8538 27.1905 19.7504V19.7587Z" fill="black"/>
</svg>
