<svg width="44" height="46" viewBox="0 0 44 46" fill="none" xmlns="http://www.w3.org/2000/svg">
<path d="M21.6165 0.953308L0.940002 11.2743V16.6439H43.7635V11.2459L21.6165 0.953308ZM40.9086 13.6841H3.7949V13.1342L21.6595 4.21681L40.9086 13.1627V13.6841Z" fill="black"/>
<path d="M40.9086 37.3622H3.79489V40.3219H40.9086V37.3622Z" fill="black"/>
<path d="M43.7635 42.5417H0.940002V45.5015H43.7635V42.5417Z" fill="black"/>
<path d="M7.36354 19.6036H4.50864V34.4024H7.36354V19.6036Z" fill="black"/>
<path d="M40.1949 19.6036H37.34V34.4024H40.1949V19.6036Z" fill="black"/>
<path d="M31.6302 19.6036H28.7753V34.4024H31.6302V19.6036Z" fill="black"/>
<path d="M15.9282 19.6036H13.0733V34.4024H15.9282V19.6036Z" fill="black"/>
<path d="M23.7792 19.6036H20.9243V34.4024H23.7792V19.6036Z" fill="black"/>
</svg>
