<svg width="71" height="71" viewBox="0 0 71 71" fill="none" xmlns="http://www.w3.org/2000/svg">
<path d="M35.2571 2.18913C33.7597 2.18913 32.296 2.63314 31.051 3.46502C29.806 4.29689 28.8357 5.47927 28.2627 6.86262C27.6897 8.24598 27.5398 9.76818 27.8319 11.2367C28.124 12.7053 28.845 14.0543 29.9038 15.113C30.9626 16.1718 32.3115 16.8929 33.7801 17.185C35.2487 17.4771 36.7709 17.3272 38.1542 16.7542C39.5376 16.1812 40.72 15.2108 41.5518 13.9658C42.3837 12.7208 42.8277 11.2571 42.8277 9.75979C42.8277 7.75192 42.0301 5.8263 40.6103 4.40653C39.1905 2.98675 37.2649 2.18913 35.2571 2.18913ZM35.2571 12.788C34.6581 12.788 34.0726 12.6104 33.5746 12.2777C33.0767 11.9449 32.6885 11.472 32.4593 10.9187C32.2301 10.3653 32.1701 9.75643 32.287 9.169C32.4038 8.58158 32.6922 8.04199 33.1158 7.61848C33.5393 7.19497 34.0788 6.90656 34.6663 6.78971C35.2537 6.67287 35.8626 6.73283 36.4159 6.96204C36.9693 7.19124 37.4422 7.57938 37.775 8.07737C38.1077 8.57537 38.2853 9.16085 38.2853 9.75979C38.2853 10.5629 37.9663 11.3332 37.3984 11.9011C36.8305 12.469 36.0602 12.788 35.2571 12.788Z" fill="#8491C1"/>
<path d="M63.2554 58.2119H7.25866C6.60059 58.212 5.96044 58.4263 5.43508 58.8226C4.90973 59.2189 4.52776 59.7756 4.34699 60.4083L1.94618 68.8109H68.5679L66.1671 60.4083C65.9863 59.7756 65.6044 59.2189 65.079 58.8226C64.5537 58.4263 63.9135 58.212 63.2554 58.2119Z" fill="#505572"/>
<path d="M66.1671 60.4083C65.9863 59.7756 65.6044 59.2189 65.079 58.8226C64.5537 58.4263 63.9135 58.212 63.2554 58.2119H58.713C59.3711 58.212 60.0113 58.4263 60.5366 58.8226C61.062 59.2189 61.4439 59.7756 61.6247 60.4083L64.0255 68.8109H68.5679L66.1671 60.4083Z" fill="#3D4360"/>
<path d="M53.8569 18.8446H16.6572C15.9338 18.8446 15.2344 19.1035 14.6854 19.5745C14.1364 20.0455 13.7742 20.6975 13.6642 21.4124L8.0027 58.212H62.5114L56.8499 21.4124C56.7399 20.6975 56.3777 20.0455 55.8287 19.5745C55.2797 19.1035 54.5803 18.8446 53.8569 18.8446Z" fill="#8491C1"/>
<path d="M56.8499 21.4124C56.7399 20.6975 56.3776 20.0455 55.8287 19.5745C55.2797 19.1035 54.5802 18.8446 53.8569 18.8446H49.3145C50.0379 18.8446 50.7373 19.1035 51.2863 19.5745C51.8353 20.0455 52.1975 20.6975 52.3075 21.4124L57.969 58.212H62.5114L56.8499 21.4124Z" fill="#6C80AD"/>
<path d="M26.1723 11.2739H44.3418C45.145 11.2739 45.9152 11.593 46.4831 12.1609C47.0511 12.7288 47.3701 13.499 47.3701 14.3022V18.8446H23.144V14.3022C23.144 13.499 23.4631 12.7288 24.031 12.1609C24.5989 11.593 25.3691 11.2739 26.1723 11.2739Z" fill="#505572"/>
<path d="M44.3418 11.2739H39.7994C40.6026 11.2739 41.3728 11.593 41.9407 12.1609C42.5087 12.7288 42.8277 13.499 42.8277 14.3022V18.8446H47.3701V14.3022C47.3701 13.499 47.051 12.7288 46.4831 12.1609C45.9152 11.593 45.145 11.2739 44.3418 11.2739Z" fill="#3D4360"/>
<path d="M38.2853 49.1272H32.2288C31.0245 49.1259 29.8699 48.6469 29.0183 47.7953C28.1667 46.9437 27.6877 45.7891 27.6864 44.5848C27.6864 44.1832 27.8459 43.7981 28.1299 43.5141C28.4138 43.2302 28.799 43.0707 29.2005 43.0707C29.6021 43.0707 29.9872 43.2302 30.2712 43.5141C30.5551 43.7981 30.7147 44.1832 30.7147 44.5848C30.7149 44.9863 30.8746 45.3712 31.1585 45.6551C31.4423 45.939 31.8273 46.0986 32.2288 46.0989H38.2853C38.6868 46.0986 39.0718 45.939 39.3557 45.6551C39.6395 45.3712 39.7992 44.9863 39.7994 44.5848V41.5565C39.7992 41.155 39.6395 40.7701 39.3557 40.4862C39.0718 40.2023 38.6868 40.0427 38.2853 40.0424H32.2288C31.0245 40.0411 29.8699 39.5621 29.0183 38.7105C28.1667 37.8589 27.6877 36.7043 27.6864 35.5V32.4717C27.6877 31.2674 28.1667 30.1128 29.0183 29.2612C29.8699 28.4097 31.0245 27.9307 32.2288 27.9294H38.2853C39.4896 27.9307 40.6442 28.4097 41.4958 29.2612C42.3474 30.1128 42.8264 31.2674 42.8277 32.4717C42.8277 32.8733 42.6682 33.2584 42.3842 33.5424C42.1003 33.8264 41.7151 33.9859 41.3136 33.9859C40.912 33.9859 40.5269 33.8264 40.2429 33.5424C39.959 33.2584 39.7994 32.8733 39.7994 32.4717C39.7992 32.0703 39.6395 31.6853 39.3557 31.4014C39.0718 31.1175 38.6868 30.9579 38.2853 30.9576H32.2288C31.8273 30.9579 31.4423 31.1175 31.1585 31.4014C30.8746 31.6853 30.7149 32.0703 30.7147 32.4717V35.5C30.7149 35.9015 30.8746 36.2865 31.1585 36.5703C31.4423 36.8542 31.8273 37.0139 32.2288 37.0141H38.2853C39.4896 37.0155 40.6442 37.4945 41.4958 38.346C42.3474 39.1976 42.8264 40.3522 42.8277 41.5565V44.5848C42.8264 45.7891 42.3474 46.9437 41.4958 47.7953C40.6442 48.6469 39.4896 49.1259 38.2853 49.1272Z" fill="#505572"/>
<path d="M35.2571 30.9576C35.0582 30.9577 34.8612 30.9187 34.6775 30.8426C34.4937 30.7666 34.3268 30.655 34.1861 30.5144C34.0455 30.3738 33.934 30.2068 33.8579 30.0231C33.7819 29.8393 33.7428 29.6424 33.7429 29.4435V26.4152C33.7429 26.0137 33.9024 25.6285 34.1864 25.3446C34.4704 25.0606 34.8555 24.9011 35.2571 24.9011C35.6586 24.9011 36.0437 25.0606 36.3277 25.3446C36.6117 25.6285 36.7712 26.0137 36.7712 26.4152V29.4435C36.7713 29.6424 36.7322 29.8393 36.6562 30.0231C36.5801 30.2068 36.4686 30.3738 36.328 30.5144C36.1873 30.655 36.0204 30.7666 35.8366 30.8426C35.6529 30.9187 35.4559 30.9577 35.2571 30.9576Z" fill="#505572"/>
<path d="M35.2571 52.1554C35.0582 52.1555 34.8612 52.1165 34.6775 52.0404C34.4937 51.9644 34.3268 51.8528 34.1861 51.7122C34.0455 51.5716 33.934 51.4046 33.8579 51.2209C33.7819 51.0371 33.7428 50.8402 33.7429 50.6413V47.613C33.7429 47.2115 33.9024 46.8263 34.1864 46.5424C34.4704 46.2584 34.8555 46.0989 35.2571 46.0989C35.6586 46.0989 36.0437 46.2584 36.3277 46.5424C36.6117 46.8263 36.7712 47.2115 36.7712 47.613V50.6413C36.7713 50.8402 36.7322 51.0371 36.6562 51.2209C36.5801 51.4046 36.4686 51.5716 36.328 51.7122C36.1873 51.8528 36.0204 51.9644 35.8366 52.0404C35.6529 52.1165 35.4559 52.1555 35.2571 52.1554Z" fill="#505572"/>
<path d="M70.0244 68.3954L67.6231 59.992C67.3746 59.1385 66.8819 58.3764 66.2057 57.7994C65.5296 57.2224 64.6994 56.8557 63.8175 56.7445L58.346 21.1822C58.1856 20.1079 57.6436 19.1272 56.8192 18.4198C55.9948 17.7125 54.9432 17.3257 53.8569 17.3304H48.8842V14.3022C48.8829 13.0979 48.4039 11.9433 47.5523 11.0917C46.7008 10.2401 45.5461 9.76111 44.3418 9.75979C44.3418 7.35035 43.3847 5.0396 41.681 3.33587C39.9772 1.63215 37.6665 0.675003 35.257 0.675003C32.8476 0.675003 30.5369 1.63215 28.8331 3.33587C27.1294 5.0396 26.1723 7.35035 26.1723 9.75979C24.968 9.76111 23.8133 10.2401 22.9618 11.0917C22.1102 11.9433 21.6312 13.0979 21.6299 14.3022V17.3304H16.6572C15.5709 17.3257 14.5193 17.7125 13.6949 18.4198C12.8705 19.1272 12.3285 20.1079 12.1681 21.1822L6.69661 56.7446C5.81467 56.8558 4.98451 57.2225 4.30834 57.7996C3.63216 58.3766 3.1395 59.1388 2.891 59.9923L0.489737 68.3957C0.425323 68.621 0.414127 68.8583 0.457033 69.0887C0.499939 69.3191 0.595773 69.5364 0.736982 69.7234C0.878191 69.9105 1.06092 70.0622 1.27075 70.1666C1.48059 70.271 1.71181 70.3252 1.94618 70.325H68.5679C68.8023 70.3252 69.0336 70.271 69.2434 70.1666C69.4533 70.0622 69.6361 69.9104 69.7773 69.7234C69.9185 69.5363 70.0143 69.3189 70.0572 69.0885C70.1001 68.858 70.0888 68.6208 70.0244 68.3954ZM35.257 3.70326C36.8628 3.70487 38.4024 4.34348 39.5379 5.47895C40.6734 6.61442 41.312 8.15399 41.3136 9.75979H39.7994C39.7994 8.55507 39.3209 7.39969 38.469 6.54783C37.6171 5.69597 36.4618 5.21739 35.257 5.21739C34.0523 5.21739 32.897 5.69597 32.0451 6.54783C31.1932 7.39969 30.7147 8.55507 30.7147 9.75979H29.2005C29.2021 8.15399 29.8407 6.61442 30.9762 5.47895C32.1117 4.34348 33.6513 3.70487 35.257 3.70326ZM33.7429 9.75979C33.7429 9.35821 33.9024 8.97309 34.1864 8.68913C34.4704 8.40518 34.8555 8.24566 35.257 8.24566C35.6586 8.24566 36.0438 8.40518 36.3277 8.68913C36.6117 8.97309 36.7712 9.35821 36.7712 9.75979H33.7429ZM24.6581 14.3022C24.6584 13.9007 24.818 13.5157 25.1019 13.2318C25.3858 12.9479 25.7708 12.7883 26.1723 12.788H44.3418C44.7433 12.7883 45.1283 12.9479 45.4122 13.2318C45.6961 13.5157 45.8557 13.9007 45.856 14.3022V17.3304H24.6581V14.3022ZM15.1608 21.6436C15.214 21.2853 15.3946 20.9581 15.6694 20.7222C15.9442 20.4862 16.2949 20.3571 16.6572 20.3587H53.8569C54.2192 20.3571 54.5699 20.4862 54.8447 20.7222C55.1195 20.9581 55.3001 21.2853 55.3533 21.6436L60.7459 56.6978H9.76818L15.1608 21.6436ZM3.95422 67.2967L5.80403 60.8232C5.89505 60.5075 6.08611 60.2298 6.34848 60.032C6.61085 59.8341 6.93035 59.7268 7.25896 59.7261H63.2551C63.5837 59.7268 63.9032 59.8341 64.1656 60.032C64.428 60.2298 64.619 60.5075 64.7101 60.8232L66.5599 67.2967H3.95422Z" fill="#231F20"/>
<path d="M32.2288 30.9576H38.2853C38.6868 30.9579 39.0718 31.1175 39.3557 31.4014C39.6395 31.6853 39.7992 32.0703 39.7994 32.4717C39.7994 32.8733 39.959 33.2584 40.2429 33.5424C40.5269 33.8264 40.912 33.9859 41.3136 33.9859C41.7151 33.9859 42.1003 33.8264 42.3842 33.5424C42.6682 33.2584 42.8277 32.8733 42.8277 32.4717C42.8264 31.2674 42.3474 30.1128 41.4958 29.2613C40.6442 28.4097 39.4896 27.9307 38.2853 27.9294H36.7712V26.4152C36.7712 26.0137 36.6117 25.6285 36.3277 25.3446C36.0438 25.0606 35.6586 24.9011 35.2571 24.9011C34.8555 24.9011 34.4704 25.0606 34.1864 25.3446C33.9024 25.6285 33.7429 26.0137 33.7429 26.4152V27.9294H32.2288C31.0245 27.9307 29.8699 28.4097 29.0183 29.2613C28.1667 30.1128 27.6877 31.2674 27.6864 32.4717V35.5C27.6877 36.7043 28.1667 37.8589 29.0183 38.7105C29.8699 39.5621 31.0245 40.0411 32.2288 40.0424H38.2853C38.6868 40.0427 39.0718 40.2023 39.3557 40.4862C39.6395 40.7701 39.7992 41.155 39.7994 41.5565V44.5848C39.7992 44.9863 39.6395 45.3712 39.3557 45.6551C39.0718 45.939 38.6868 46.0986 38.2853 46.0989H32.2288C31.8273 46.0986 31.4423 45.939 31.1585 45.6551C30.8746 45.3712 30.7149 44.9863 30.7147 44.5848C30.7147 44.1832 30.5551 43.7981 30.2712 43.5141C29.9872 43.2302 29.6021 43.0707 29.2005 43.0707C28.799 43.0707 28.4138 43.2302 28.1299 43.5141C27.8459 43.7981 27.6864 44.1832 27.6864 44.5848C27.6877 45.7891 28.1667 46.9437 29.0183 47.7953C29.8699 48.6469 31.0245 49.1259 32.2288 49.1272H33.7429V50.6413C33.7429 51.0429 33.9024 51.428 34.1864 51.712C34.4704 51.9959 34.8555 52.1554 35.2571 52.1554C35.6586 52.1554 36.0438 51.9959 36.3277 51.712C36.6117 51.428 36.7712 51.0429 36.7712 50.6413V49.1272H38.2853C39.4896 49.1259 40.6442 48.6469 41.4958 47.7953C42.3474 46.9437 42.8264 45.7891 42.8277 44.5848V41.5565C42.8264 40.3522 42.3474 39.1976 41.4958 38.346C40.6442 37.4945 39.4896 37.0155 38.2853 37.0141H32.2288C31.8273 37.0139 31.4423 36.8542 31.1585 36.5703C30.8746 36.2865 30.7149 35.9015 30.7147 35.5V32.4717C30.7149 32.0703 30.8746 31.6853 31.1585 31.4014C31.4423 31.1175 31.8273 30.9579 32.2288 30.9576Z" fill="#231F20"/>
</svg>
