<svg width="17" height="17" viewBox="0 0 17 17" fill="none" xmlns="http://www.w3.org/2000/svg">
<mask id="path-1-inside-1_11_104" fill="white">
<path d="M13.8125 16.66H3.1875C3.08178 16.66 2.99625 16.5745 2.99625 16.4687V2.8475H1.0625V2.465H5.6525V0.531246C5.6525 0.425528 5.73803 0.339996 5.84375 0.339996H11.1563C11.262 0.339996 11.3475 0.425528 11.3475 0.531246V2.465H15.9375V2.8475H14.0038V16.4687C14.0038 16.5745 13.9182 16.66 13.8125 16.66ZM3.37875 16.2775H13.6213V2.8475H3.37875V16.2775ZM6.035 2.465H10.965V0.722496H6.035V2.465Z"/>
</mask>
<path d="M13.8125 16.66H3.1875C3.08178 16.66 2.99625 16.5745 2.99625 16.4687V2.8475H1.0625V2.465H5.6525V0.531246C5.6525 0.425528 5.73803 0.339996 5.84375 0.339996H11.1563C11.262 0.339996 11.3475 0.425528 11.3475 0.531246V2.465H15.9375V2.8475H14.0038V16.4687C14.0038 16.5745 13.9182 16.66 13.8125 16.66ZM3.37875 16.2775H13.6213V2.8475H3.37875V16.2775ZM6.035 2.465H10.965V0.722496H6.035V2.465Z" fill="black"/>
<path d="M2.99625 2.8475H3.99625V1.8475H2.99625V2.8475ZM1.0625 2.8475H0.0625V3.8475H1.0625V2.8475ZM1.0625 2.465V1.465H0.0625V2.465H1.0625ZM5.6525 2.465V3.465H6.6525V2.465H5.6525ZM11.3475 2.465H10.3475V3.465H11.3475V2.465ZM15.9375 2.465H16.9375V1.465H15.9375V2.465ZM15.9375 2.8475V3.8475H16.9375V2.8475H15.9375ZM14.0038 2.8475V1.8475H13.0038V2.8475H14.0038ZM3.37875 16.2775H2.37875V17.2775H3.37875V16.2775ZM13.6213 16.2775V17.2775H14.6213V16.2775H13.6213ZM13.6213 2.8475H14.6213V1.8475H13.6213V2.8475ZM3.37875 2.8475V1.8475H2.37875V2.8475H3.37875ZM6.035 2.465H5.035V3.465H6.035V2.465ZM10.965 2.465V3.465H11.965V2.465H10.965ZM10.965 0.722496H11.965V-0.277504H10.965V0.722496ZM6.035 0.722496V-0.277504H5.035V0.722496H6.035ZM13.8125 15.66H3.1875V17.66H13.8125V15.66ZM3.1875 15.66C3.63407 15.66 3.99625 16.0222 3.99625 16.4687H1.99625C1.99625 17.1268 2.5295 17.66 3.1875 17.66V15.66ZM3.99625 16.4687V2.8475H1.99625V16.4687H3.99625ZM2.99625 1.8475H1.0625V3.8475H2.99625V1.8475ZM2.0625 2.8475V2.465H0.0625V2.8475H2.0625ZM1.0625 3.465H5.6525V1.465H1.0625V3.465ZM6.6525 2.465V0.531246H4.6525V2.465H6.6525ZM6.6525 0.531246C6.6525 0.977811 6.29032 1.34 5.84375 1.34V-0.660004C5.18575 -0.660004 4.6525 -0.126756 4.6525 0.531246H6.6525ZM5.84375 1.34H11.1563V-0.660004H5.84375V1.34ZM11.1563 1.34C10.7097 1.34 10.3475 0.977814 10.3475 0.531246H12.3475C12.3475 -0.126759 11.8143 -0.660004 11.1563 -0.660004V1.34ZM10.3475 0.531246V2.465H12.3475V0.531246H10.3475ZM11.3475 3.465H15.9375V1.465H11.3475V3.465ZM14.9375 2.465V2.8475H16.9375V2.465H14.9375ZM15.9375 1.8475H14.0038V3.8475H15.9375V1.8475ZM13.0038 2.8475V16.4687H15.0038V2.8475H13.0038ZM13.0038 16.4687C13.0038 16.0222 13.3659 15.66 13.8125 15.66V17.66C14.4705 17.66 15.0038 17.1268 15.0038 16.4687H13.0038ZM3.37875 17.2775H13.6213V15.2775H3.37875V17.2775ZM14.6213 16.2775V2.8475H12.6213V16.2775H14.6213ZM13.6213 1.8475H3.37875V3.8475H13.6213V1.8475ZM2.37875 2.8475V16.2775H4.37875V2.8475H2.37875ZM6.035 3.465H10.965V1.465H6.035V3.465ZM11.965 2.465V0.722496H9.965V2.465H11.965ZM10.965 -0.277504H6.035V1.7225H10.965V-0.277504ZM5.035 0.722496V2.465H7.035V0.722496H5.035Z" fill="#FF0000" mask="url(#path-1-inside-1_11_104)"/>
<mask id="path-3-inside-2_11_104" fill="white">
<path d="M11.1563 14.535C11.0506 14.535 10.9651 14.4495 10.9651 14.3437V4.78125C10.9651 4.67553 11.0506 4.59 11.1563 4.59C11.2621 4.59 11.3476 4.67553 11.3476 4.78125V14.3437C11.3476 14.4495 11.2621 14.535 11.1563 14.535ZM8.50009 14.535C8.39437 14.535 8.30884 14.4495 8.30884 14.3437V4.78125C8.30884 4.67553 8.39437 4.59 8.50009 4.59C8.60581 4.59 8.69134 4.67553 8.69134 4.78125V14.3437C8.69134 14.4495 8.60581 14.535 8.50009 14.535ZM5.84384 14.535C5.73812 14.535 5.65259 14.4495 5.65259 14.3437V4.78125C5.65259 4.67553 5.73812 4.59 5.84384 4.59C5.94956 4.59 6.03509 4.67553 6.03509 4.78125V14.3437C6.03509 14.4495 5.94956 14.535 5.84384 14.535Z"/>
</mask>
<path d="M11.1563 14.535C11.0506 14.535 10.9651 14.4495 10.9651 14.3437V4.78125C10.9651 4.67553 11.0506 4.59 11.1563 4.59C11.2621 4.59 11.3476 4.67553 11.3476 4.78125V14.3437C11.3476 14.4495 11.2621 14.535 11.1563 14.535ZM8.50009 14.535C8.39437 14.535 8.30884 14.4495 8.30884 14.3437V4.78125C8.30884 4.67553 8.39437 4.59 8.50009 4.59C8.60581 4.59 8.69134 4.67553 8.69134 4.78125V14.3437C8.69134 14.4495 8.60581 14.535 8.50009 14.535ZM5.84384 14.535C5.73812 14.535 5.65259 14.4495 5.65259 14.3437V4.78125C5.65259 4.67553 5.73812 4.59 5.84384 4.59C5.94956 4.59 6.03509 4.67553 6.03509 4.78125V14.3437C6.03509 14.4495 5.94956 14.535 5.84384 14.535Z" fill="black"/>
<path d="M11.1563 13.535C11.6029 13.535 11.9651 13.8972 11.9651 14.3437H9.96509C9.96509 15.0017 10.4983 15.535 11.1563 15.535V13.535ZM11.9651 14.3437V4.78125H9.96509V14.3437H11.9651ZM11.9651 4.78125C11.9651 5.22782 11.6029 5.59 11.1563 5.59V3.59C10.4983 3.59 9.96509 4.12324 9.96509 4.78125H11.9651ZM11.1563 5.59C10.7098 5.59 10.3476 5.22782 10.3476 4.78125H12.3476C12.3476 4.12324 11.8143 3.59 11.1563 3.59V5.59ZM10.3476 4.78125V14.3437H12.3476V4.78125H10.3476ZM10.3476 14.3437C10.3476 13.8972 10.7098 13.535 11.1563 13.535V15.535C11.8143 15.535 12.3476 15.0017 12.3476 14.3437H10.3476ZM8.50009 13.535C8.94666 13.535 9.30884 13.8972 9.30884 14.3437H7.30884C7.30884 15.0017 7.84208 15.535 8.50009 15.535V13.535ZM9.30884 14.3437V4.78125H7.30884V14.3437H9.30884ZM9.30884 4.78125C9.30884 5.22781 8.94665 5.59 8.50009 5.59V3.59C7.84208 3.59 7.30884 4.12324 7.30884 4.78125H9.30884ZM8.50009 5.59C8.05353 5.59 7.69134 5.22782 7.69134 4.78125H9.69134C9.69134 4.12324 9.15809 3.59 8.50009 3.59V5.59ZM7.69134 4.78125V14.3437H9.69134V4.78125H7.69134ZM7.69134 14.3437C7.69134 13.8972 8.05352 13.535 8.50009 13.535V15.535C9.15809 15.535 9.69134 15.0017 9.69134 14.3437H7.69134ZM5.84384 13.535C6.29041 13.535 6.65259 13.8972 6.65259 14.3437H4.65259C4.65259 15.0017 5.18583 15.535 5.84384 15.535V13.535ZM6.65259 14.3437V4.78125H4.65259V14.3437H6.65259ZM6.65259 4.78125C6.65259 5.22781 6.2904 5.59 5.84384 5.59V3.59C5.18583 3.59 4.65259 4.12324 4.65259 4.78125H6.65259ZM5.84384 5.59C5.39727 5.59 5.03509 5.22781 5.03509 4.78125H7.03509C7.03509 4.12324 6.50184 3.59 5.84384 3.59V5.59ZM5.03509 4.78125V14.3437H7.03509V4.78125H5.03509ZM5.03509 14.3437C5.03509 13.8972 5.39727 13.535 5.84384 13.535V15.535C6.50184 15.535 7.03509 15.0017 7.03509 14.3437H5.03509Z" fill="#FF0000" mask="url(#path-3-inside-2_11_104)"/>
</svg>
