<svg width="44" height="46" viewBox="0 0 44 46" fill="none" xmlns="http://www.w3.org/2000/svg">
<path fill-rule="evenodd" clip-rule="evenodd" d="M11.6825 0.791321C5.74959 0.791321 0.940002 5.77756 0.940002 11.9284V34.2025C0.940002 40.3532 5.74959 45.3395 11.6825 45.3395H33.1675C39.1004 45.3395 43.91 40.3532 43.91 34.2025V11.9284C43.91 5.77756 39.1004 0.791321 33.1675 0.791321H11.6825ZM24.5735 14.1558C24.5735 12.9256 23.6116 11.9284 22.425 11.9284C21.2384 11.9284 20.2765 12.9256 20.2765 14.1558V31.9751C20.2765 33.2053 21.2384 34.2025 22.425 34.2025C23.6116 34.2025 24.5735 33.2053 24.5735 31.9751V14.1558ZM13.831 18.6106C15.0176 18.6106 15.9795 19.6078 15.9795 20.838V31.9751C15.9795 33.2053 15.0176 34.2025 13.831 34.2025C12.6444 34.2025 11.6825 33.2053 11.6825 31.9751V20.838C11.6825 19.6078 12.6444 18.6106 13.831 18.6106ZM31.019 23.0654C32.2056 23.0654 33.1675 24.0626 33.1675 25.2928V31.9751C33.1675 33.2053 32.2056 34.2025 31.019 34.2025C29.8324 34.2025 28.8705 33.2053 28.8705 31.9751V25.2928C28.8705 24.0626 29.8324 23.0654 31.019 23.0654Z" fill="black"/>
</svg>
