<svg width="72" height="65" viewBox="0 0 72 65" fill="none" xmlns="http://www.w3.org/2000/svg">
<path d="M6.34055 11.8182C3.07696 11.8182 0.431458 14.4773 0.431458 17.7273V59.0909C0.431458 62.3409 3.07705 65 6.34055 65H65.4315C68.6962 65 71.3406 62.3409 71.3406 59.0909V17.7273C71.3406 14.4773 68.6962 11.8182 65.4315 11.8182H6.34055Z" fill="#2980B9"/>
<path d="M9.29511 0C6.03152 0 3.38602 2.65909 3.38602 5.90909V47.2727C3.38602 50.5227 6.03152 53.1818 9.29511 53.1818H41.7951H56.5678H62.4769C65.7417 53.1818 68.386 50.5227 68.386 47.2727V20.6818V11.8182C68.386 8.56818 65.7417 5.90909 62.4769 5.90909H56.5678H41.7951H38.8406L29.9769 0H9.29511Z" fill="#2980B9"/>
<path d="M68.386 38.4091V14.7727C68.386 11.5227 65.7417 8.86365 62.4769 8.86365H29.9769H15.2042H9.29511C6.03152 8.86365 3.38602 11.5227 3.38602 14.7727V38.4091H68.386Z" fill="#BDC3C7"/>
<path d="M6.34055 11.8182C3.07696 11.8182 0.431458 14.4773 0.431458 17.7273V35.4545V38.4091V56.1364C0.431458 59.3864 3.07705 62.0455 6.34055 62.0455H65.4315C68.6962 62.0455 71.3406 59.3864 71.3406 56.1364V38.4091V35.4545V17.7273C71.3406 14.4773 68.6962 11.8182 65.4315 11.8182H6.34055Z" fill="#3498DB"/>
<path d="M46.2197 43.7466C46.2197 42.3039 45.9447 41.0455 45.3916 39.9683C44.8416 38.8944 43.9812 37.953 42.8199 37.1411C41.83 36.4521 40.5037 35.8116 38.854 35.2196C38.6728 35.1549 38.5467 34.9802 38.5499 34.7861L38.6599 25.4504C38.6631 25.1237 39.0092 24.8973 39.3036 25.0396C39.8859 25.321 40.397 25.7318 40.8304 26.2721C41.6133 27.2458 42.0629 28.5009 42.1729 30.0633C42.202 30.4968 42.5643 30.8364 43.001 30.8364H45.1037C45.5792 30.8364 45.9577 30.4321 45.9318 29.9565C45.8088 27.5854 45.1586 25.6898 44.0265 24.26C42.8263 22.7461 41.1378 21.8112 39.0513 21.4489C38.8313 21.4101 38.6696 21.2257 38.6696 21.0025V17.8453C38.6696 17.3407 38.262 16.9331 37.7574 16.9331H36.6122C36.1399 16.9331 35.7582 17.3148 35.7582 17.7871V20.4461L35.7226 21.0025C35.7097 21.216 35.5447 21.3907 35.3312 21.4231C33.2351 21.7401 31.5529 22.5747 30.3269 23.9236C29.0265 25.3534 28.3666 27.1843 28.3666 29.4163C28.3666 31.6063 29.0233 33.4146 30.3528 34.8379C31.4365 35.9992 33.0442 36.9794 35.1727 37.7816C35.3506 37.8495 35.4736 38.021 35.4703 38.2118L35.3603 47.9196C35.3571 48.2172 35.0724 48.4307 34.7845 48.3563C33.8594 48.1137 33.0895 47.6834 32.4813 47.0559C31.637 46.1889 31.1518 45.0664 31.0257 43.5719C30.9901 43.1514 30.6148 42.8053 30.1943 42.8053H28.069C27.5903 42.8053 27.2118 43.2161 27.2441 43.6916C27.3962 45.9431 28.1628 47.7319 29.4244 49.1132C30.7831 50.6012 32.6366 51.4617 35.0272 51.7464C35.2568 51.7722 35.4347 51.9631 35.4347 52.196V54.7418C35.4347 55.2917 35.8844 55.7382 36.4311 55.7382H37.3918C37.9159 55.7382 38.3461 55.3079 38.3461 54.7839V52.6489L38.3493 52.1831C38.3526 51.9566 38.524 51.769 38.7504 51.7399C41.0472 51.4358 42.8457 50.6239 44.1494 49.2976C45.5274 47.9002 46.2197 46.0466 46.2197 43.7466ZM33.4874 32.6641C32.5816 31.8392 32.1287 30.7297 32.1287 29.3387C32.1287 27.8377 32.559 26.67 33.4162 25.8321C33.8464 25.4116 34.377 25.0978 35.0045 24.8876C35.3021 24.7873 35.6127 25.0137 35.6094 25.3275L35.5221 33.214C35.5188 33.5569 35.1468 33.7736 34.846 33.6087C34.2993 33.3078 33.8464 32.994 33.4874 32.6641ZM40.9081 47.2985C40.3711 47.7481 39.7306 48.0781 38.9834 48.2916C38.6858 48.3757 38.3881 48.1557 38.3914 47.8484L38.4884 39.6999C38.4917 39.3634 38.8507 39.1499 39.1516 39.2987C39.9862 39.716 40.6461 40.156 41.1216 40.6218C41.9982 41.479 42.4382 42.5336 42.4382 43.7854C42.4414 45.2702 41.9303 46.4412 40.9081 47.2985Z" fill="url(#paint0_linear_0_107)"/>
<path opacity="0.2" d="M37.7541 17.5801C37.8997 17.5801 38.0194 17.6998 38.0194 17.8453V21.0058C38.0194 21.5395 38.4043 21.9956 38.9381 22.0894C40.8919 22.4291 42.4317 23.296 43.5186 24.6676C44.5764 26.0036 45.1684 27.7957 45.2848 29.9954C45.288 30.0665 45.2525 30.115 45.2331 30.1377C45.2072 30.1636 45.1651 30.1959 45.1037 30.1959H43.001C42.904 30.1959 42.8263 30.1215 42.8166 30.0245C42.6969 28.3456 42.1988 26.9481 41.3351 25.8742C40.8434 25.2628 40.2546 24.7873 39.585 24.4638C39.4362 24.3926 39.2777 24.357 39.116 24.357C38.5143 24.357 38.0226 24.8487 38.0129 25.4504L37.9029 34.7861C37.8965 35.2552 38.1908 35.6757 38.6372 35.8342C40.232 36.4068 41.5162 37.0246 42.4511 37.6748C43.5218 38.4221 44.3176 39.2923 44.819 40.2659C45.3204 41.2461 45.5759 42.4171 45.5759 43.7499C45.5759 45.8946 44.9581 47.5637 43.69 48.848C42.4931 50.061 40.8046 50.8212 38.6663 51.1026C38.1229 51.1738 37.7088 51.6396 37.7024 52.1831L37.6991 52.6554V54.7903C37.6991 54.9553 37.56 55.0977 37.3918 55.0977H36.4311C36.2402 55.0977 36.0817 54.9359 36.0817 54.7483V52.2025C36.0817 51.6461 35.6612 51.177 35.1048 51.1123C32.8501 50.8438 31.1486 50.0513 29.9032 48.6862C28.7063 47.3761 28.027 45.6811 27.8911 43.6561C27.8879 43.5849 27.9202 43.5396 27.9396 43.517C27.9623 43.4911 28.0043 43.4587 28.069 43.4587H30.1943C30.2784 43.4587 30.3722 43.5461 30.3787 43.6334C30.5178 45.2541 31.0515 46.5221 32.0155 47.512C32.7045 48.2204 33.5812 48.7186 34.6196 48.9903C34.7101 49.0129 34.8072 49.0259 34.901 49.0259C35.5059 49.0259 36.0008 48.5374 36.0073 47.9357L36.1173 38.2248C36.1238 37.7654 35.8359 37.3481 35.3992 37.1832C33.3709 36.4197 31.8311 35.4849 30.8219 34.4012C29.6023 33.0943 29.0104 31.4672 29.0104 29.4228C29.0104 27.3751 29.612 25.6736 30.8025 24.3667C31.9185 23.1407 33.4744 22.3676 35.425 22.07C35.9394 21.9924 36.334 21.5622 36.3631 21.051L36.3987 20.4947V20.4558V17.7871C36.3987 17.6739 36.4925 17.5801 36.6058 17.5801H37.7541ZM35.0627 34.3139C35.6644 34.3139 36.1593 33.8254 36.1691 33.2237L36.2564 25.3372C36.2596 25.0396 36.1464 24.7614 35.9394 24.5511C35.7323 24.3409 35.4444 24.2212 35.1501 24.2212C35.0304 24.2212 34.9139 24.2406 34.8007 24.2794C34.0826 24.5188 33.4647 24.8876 32.9666 25.376C31.9832 26.3368 31.485 27.6727 31.485 29.3452C31.485 30.9205 32.0123 32.1983 33.0539 33.1461C33.4453 33.5019 33.9403 33.848 34.5322 34.178C34.694 34.2653 34.8784 34.3139 35.0627 34.3139ZM38.854 48.9579C38.9575 48.9579 39.061 48.945 39.1613 48.9159C39.9959 48.6765 40.7237 48.3013 41.3254 47.7966C42.4931 46.8165 43.0884 45.4676 43.0884 43.7887C43.0884 42.3621 42.5805 41.1394 41.5777 40.1624C41.0569 39.6546 40.342 39.1693 39.4427 38.7229C39.2874 38.6421 39.1192 38.6032 38.9478 38.6032C38.3461 38.6032 37.8479 39.0917 37.8415 39.6934L37.7444 47.8419C37.7412 48.1363 37.8544 48.4177 38.0614 48.628C38.2717 48.835 38.5596 48.9579 38.854 48.9579ZM37.7541 16.9331H36.609C36.1367 16.9331 35.755 17.3148 35.755 17.7871V20.4461L35.7194 21.0025C35.7065 21.216 35.5415 21.3907 35.328 21.4231C33.2351 21.7401 31.5529 22.5747 30.3269 23.9236C29.0265 25.3534 28.3666 27.1843 28.3666 29.4163C28.3666 31.6063 29.0233 33.4146 30.3528 34.8379C31.4365 35.9992 33.0442 36.9794 35.1727 37.7816C35.3506 37.8495 35.4736 38.021 35.4703 38.2118L35.3603 47.9196C35.3571 48.1751 35.1436 48.3724 34.901 48.3724C34.8622 48.3724 34.8234 48.366 34.7845 48.3563C33.8594 48.1137 33.0895 47.6834 32.4813 47.0559C31.637 46.1889 31.1518 45.0664 31.0257 43.5719C30.9901 43.1514 30.6148 42.8053 30.1943 42.8053H28.069C27.5903 42.8053 27.2118 43.2161 27.2441 43.6916C27.3962 45.9431 28.1628 47.7319 29.4244 49.1132C30.7831 50.6012 32.6366 51.4617 35.0272 51.7464C35.2568 51.7722 35.4347 51.9631 35.4347 52.196V54.7418C35.4347 55.2917 35.8844 55.7382 36.4311 55.7382H37.3918C37.9159 55.7382 38.3461 55.3079 38.3461 54.7839V52.6489L38.3493 52.1831C38.3526 51.9566 38.524 51.769 38.7504 51.7399C41.0472 51.4358 42.8457 50.6239 44.1494 49.2976C45.5307 47.8969 46.2197 46.0434 46.2197 43.7434C46.2197 42.3007 45.9447 41.0423 45.3916 39.9651C44.8416 38.8911 43.9812 37.9498 42.8199 37.1379C41.83 36.4488 40.5037 35.8084 38.854 35.2164C38.6728 35.1517 38.5467 34.977 38.5499 34.7829L38.6599 25.4472C38.6631 25.1884 38.8798 24.9911 39.116 24.9911C39.1774 24.9911 39.2421 25.004 39.3036 25.0331C39.8859 25.3146 40.397 25.7254 40.8304 26.2656C41.6133 27.2393 42.0629 28.4944 42.1729 30.0568C42.202 30.4903 42.5643 30.8299 43.001 30.8299H45.1037C45.5792 30.8299 45.9577 30.4256 45.9318 29.9501C45.8088 27.5789 45.1586 25.6833 44.0265 24.2535C42.8263 22.7396 41.1378 21.8048 39.0513 21.4425C38.8313 21.4036 38.6696 21.2193 38.6696 20.9961V17.8453C38.6663 17.3439 38.2588 16.9331 37.7541 16.9331ZM35.0627 33.6669C34.9883 33.6669 34.9139 33.6475 34.8428 33.6087C34.2993 33.3046 33.8464 32.9908 33.4874 32.6641C32.5816 31.8392 32.1287 30.7297 32.1287 29.3387C32.1287 27.8377 32.559 26.67 33.4162 25.8321C33.8464 25.4116 34.377 25.0978 35.0045 24.8876C35.053 24.8714 35.1016 24.8649 35.1501 24.8649C35.3959 24.8649 35.6127 25.0655 35.6094 25.3275L35.5221 33.214C35.5188 33.4793 35.2989 33.6669 35.0627 33.6669ZM38.854 48.311C38.6049 48.311 38.3914 48.1137 38.3914 47.8516L38.4884 39.7031C38.4917 39.4411 38.7084 39.2534 38.9478 39.2534C39.0157 39.2534 39.0869 39.2696 39.1516 39.302C39.9862 39.7193 40.6461 40.1592 41.1216 40.625C41.9982 41.4822 42.4382 42.5368 42.4382 43.7887C42.4382 45.2735 41.9271 46.4412 40.9081 47.2985C40.3711 47.7481 39.7306 48.0781 38.9834 48.2916C38.9413 48.3045 38.896 48.311 38.854 48.311Z" fill="#424242"/>
<defs>
<linearGradient id="paint0_linear_0_107" x1="36.7287" y1="55.7414" x2="36.7287" y2="16.9347" gradientUnits="userSpaceOnUse">
<stop stop-color="#689F38"/>
<stop offset="1" stop-color="#8BC34A"/>
</linearGradient>
</defs>
</svg>
