<svg width="42" height="45" viewBox="0 0 42 45" fill="none" xmlns="http://www.w3.org/2000/svg">
<path d="M37.3854 0.178635H15.9762C13.5931 0.178635 11.6647 2.17781 11.6647 4.64844V17.1839L1.57895 27.5067C0.959044 28.1405 0.770284 29.1011 1.10061 29.9351C1.43094 30.7667 2.21601 31.3116 3.08474 31.3116V33.8244V42.4305C3.08474 43.6602 4.04355 44.6543 5.22974 44.6543H22.2224H39.5497C40.7359 44.6543 41.6947 43.6602 41.6947 42.4305V4.64621C41.6947 2.17781 39.7685 0.178635 37.3854 0.178635ZM20.0774 29.3346V36.066V40.2067H7.37474V33.8244V29.0878V27.8247L13.7819 21.2668L20.0774 27.9448V29.3346ZM24.5347 15.7451H20.2447V11.2975H24.5347V15.7451ZM33.1147 33.5354H28.8247V29.0878H33.1147V33.5354ZM33.1147 24.6402H28.8247V20.1927H33.1147V24.6402ZM33.1147 15.7451H28.8247V11.2975H33.1147V15.7451Z" fill="black"/>
<path d="M11.6647 29.0878H15.9547V33.5354H11.6647V29.0878Z" fill="black"/>
</svg>
